#!OML:ASF I:\Actors\actors\Patient Classification 1\Patient 1\Session 1\Subject1.ASF
:FULLY-SPECIFIED
:DEGREES
1093
root 0.852174 17.4173 9.79583 9.20564 -1.69965 -9.66577
lowerback -1.91929 4.39309 8.93929
upperback -9.42077 6.27839 1.19332
thorax -8.13449 2.50202 -3.96606
lowerneck -6.52998 6.06016 7.73886
upperneck 23.5121 7.0807 1.37944
head 8.65936 4.19094 -0.146798
rclavicle 5.11871e-015 -1.94809e-014
rhumerus -31.5747 53.9994 -116.281
rradius 94.5213
rwrist 19.299
rhand -3.20793 -34.2677
rfingers 7.12502
rthumb 22.5144 -782.975
lclavicle 5.11871e-015 -1.94809e-014
lhumerus -52.6894 -4.70942 94.4713
lradius 110.709
lwrist 79.0846
lhand -19.9206 9.40781
lfingers 7.12502
lthumb 6.4165 39.2906
rfemur -0.4213 25.1814 26.791
rtibia 1.80324
rfoot -14.372 -28.2
rtoes 2.21313
lfemur 10.62 -45.8929 -15.0311
ltibia -5.10595
lfoot -25.7652 53.6792
ltoes 10.538
1094
root 0.844517 17.426 9.79881 9.44078 -1.86532 -8.93097
lowerback -2.24728 4.45729 8.03048
upperback -9.49511 6.29215 0.96172
thorax -8.06902 2.56962 -3.69136
lowerneck -6.48697 6.00415 7.78023
upperneck 23.5054 6.98242 1.45755
head 8.64535 4.15601 -0.138922
rclavicle -5.81445e-015 -9.93923e-015
rhumerus -31.5608 53.8571 -116.268
rradius 94.5203
rwrist 19.27
rhand -3.26504 -34.2837
rfingers 7.12502
rthumb 22.4596 -782.998
lclavicle -5.81445e-015 -9.93923e-015
lhumerus -52.7169 -4.88881 94.4825
lradius 110.726
lwrist 79.0884
lhand -19.9718 9.44045
lfingers 7.12502
lthumb 6.36704 39.3248
rfemur -0.796418 25.4574 25.779
rtibia 1.85632
rfoot -14.471 -28.3847
rtoes 2.42672
lfemur 10.2225 -46.1928 -15.6694
ltibia -4.92877
lfoot -26.1848 53.9429
ltoes 10.7623
1095
root 0.84228 17.4305 9.79825 9.57044 -1.93025 -8.54808
lowerback -2.39987 4.49182 7.5879
upperback -9.53748 6.30548 0.828349
thorax -8.04631 2.60437 -3.57984
lowerneck -6.48222 5.95328 7.80125
upperneck 23.5238 6.90157 1.48761
head 8.64813 4.12315 -0.140265
rclavicle -1.78906e-015 -1.90833e-014
rhumerus -31.5491 53.7669 -116.236
rradius 94.5414
rwrist 19.25
rhand -3.26385 -34.3689
rfingers 7.12502
rthumb 22.4607 -783.083
lclavicle -1.78906e-015 -1.90833e-014
lhumerus -52.7223 -5.05792 94.5036
lradius 110.763
lwrist 79.1338
lhand -20.1233 9.57778
lfingers 7.12502
lthumb 6.22074 39.4664
rfemur -1.0114 25.578 25.233
rtibia 1.86739
rfoot -14.5009 -28.4802
rtoes 2.5986
lfemur 9.93997 -46.2879 -15.9407
ltibia -4.82421
lfoot -26.2942 53.998
ltoes 10.9031
1096
root 0.841989 17.4305 9.79611 9.56643 -1.90716 -8.57303
lowerback -2.38712 4.48221 7.59847
upperback -9.52589 6.29461 0.845521
thorax -8.04315 2.59929 -3.56792
lowerneck -6.55127 5.92378 7.77898
upperneck 23.6034 6.86112 1.46743
head 8.68634 4.10162 -0.143671
rclavicle -4.18442e-014 -3.06128e-014
rhumerus -31.5311 53.7955 -116.187
rradius 94.5647
rwrist 19.2134
rhand -3.26995 -34.4132
rfingers 7.12502
rthumb 22.4549 -783.128
lclavicle -4.18442e-014 -3.06128e-014
lhumerus -52.7002 -5.11412 94.5165
lradius 110.795
lwrist 79.1507
lhand -20.0851 9.54755
lfingers 7.12502
lthumb 6.25771 39.4351
rfemur -0.999668 25.6672 25.2743
rtibia 1.8512
rfoot -14.4888 -28.5801
rtoes 2.59328
lfemur 9.9009 -46.2182 -15.8536
ltibia -4.85331
lfoot -26.1902 53.9159
ltoes 10.9353
1097
root 0.841867 17.4309 9.79388 9.53999 -1.88212 -8.63382
lowerback -2.36729 4.43584 7.62511
upperback -9.4837 6.23647 0.909971
thorax -8.01937 2.57307 -3.51333
lowerneck -6.6894 5.93852 7.71453
upperneck 23.719 6.88117 1.45184
head 8.74963 4.10567 -0.129528
rclavicle 1.37658e-014 8.74653e-015
rhumerus -31.4707 53.9532 -116.13
rradius 94.549
rwrist 19.1697
rhand -3.32766 -34.3707
rfingers 7.12502
rthumb 22.3995 -783.092
lclavicle 1.37658e-014 8.74653e-015
lhumerus -52.6206 -5.03436 94.5059
lradius 110.797
lwrist 79.1675
lhand -19.9806 9.40431
lfingers 7.12502
lthumb 6.35858 39.2889
rfemur -0.951188 25.7523 25.3799
rtibia 1.84363
rfoot -14.4965 -28.6786
rtoes 2.63035
lfemur 9.91291 -46.1427 -15.7638
ltibia -4.89289
lfoot -26.0313 53.8695
ltoes 10.8007
1098
root 0.845138 17.4316 9.79071 9.55396 -1.87522 -8.64061
lowerback -2.37415 4.39821 7.64548
upperback -9.46462 6.18672 0.945687
thorax -8.00208 2.54951 -3.48441
lowerneck -6.85741 5.96132 7.5841
upperneck 23.8812 6.90037 1.52369
head 8.82864 4.1131 -0.0735195
rclavicle -6.16729e-014 -2.46493e-014
rhumerus -31.4485 54.1065 -116.117
rradius 94.5244
rwrist 19.1526
rhand -3.32764 -34.3522
rfingers 7.12502
rthumb 22.3995 -783.073
lclavicle -6.16729e-014 -2.46493e-014
lhumerus -52.5474 -4.93105 94.4949
lradius 110.765
lwrist 79.1799
lhand -19.9122 9.46299
lfingers 7.12502
lthumb 6.42458 39.3455
rfemur -0.9786 25.6975 25.366
rtibia 1.84812
rfoot -14.5173 -28.6247
rtoes 2.77525
lfemur 9.89895 -46.1558 -15.7543
ltibia -4.90874
lfoot -26.0275 53.8764
ltoes 10.8823
